<svg xmlns="http://www.w3.org/2000/svg" width="1024" height="1024"><path d="M11.463 18.25c-.261.688-.359 223.325-.219 494.75l.256 493.5 493.75.251 493.75.251V17H505.469c-393.906 0-493.628.252-494.006 1.25m10.784 169L22.5 346.5H171.455l1.31-7.5c2.456-14.072 5.023-19.716 17.735-39 5.875-8.913 7.186-11.007 8.138-13 .394-.825 1.681-3.075 2.861-5 2.512-4.099 13.515-29.936 13.507-31.716-.003-.669.632-2.694 1.411-4.5.78-1.806 2.152-5.984 3.048-9.284 3.392-12.483 3.955-14.15 6.698-19.831 3.44-7.124 6.229-9.592 10.891-9.636 2.75-.025 4.233.702 6.559 3.217 4.463 4.827 8.387 10.434 8.387 11.983 0 .752.437 1.804.972 2.339.982.982 2.863 10.89 3.749 19.748.31 3.106 1.035 5.033 2.038 5.418 1.979.759 56.583-1.526 65.241-2.73 3.575-.498 8.637-1.18 11.25-1.518l4.75-.613V28H21.994l.253 159.25M347 136.031c0 95.995.17 108.097 1.528 108.618.841.323 5.003.074 9.25-.552s13.797-1.6 21.222-2.164c7.425-.565 18.731-1.422 25.124-1.906 6.394-.483 14.239-1.362 17.434-1.953 3.195-.591 9.214-1.085 13.376-1.098 4.161-.014 9.541-.48 11.955-1.037 2.414-.556 10.514-1.466 18-2.021 17.267-1.28 29.006-2.475 29.515-3.005.218-.227-2.31-3.338-5.618-6.913-10.946-11.832-22.004-27.97-27.86-40.661-5.668-12.284-9.085-19.802-9.926-21.839-.454-1.1-2.177-4.925-3.829-8.5-1.652-3.575-3.709-8.632-4.571-11.238-.863-2.606-1.965-5.531-2.45-6.5-.979-1.955-2.762-6.925-4.4-12.262-.591-1.925-1.114-6.869-1.162-10.986l-.088-7.487 3.5-1.715c10.03-4.917 29.267 1.096 56.5 17.66 25.635 15.591 37.118 28.309 46.6 51.609 2.651 6.514 2.9 8.172 2.9 19.295 0 11.176-.25 12.821-3.064 20.147-1.685 4.387-3.485 8.405-4 8.927-.515.522-.936 1.796-.936 2.829 0 1.575.494 1.771 3.046 1.211 1.675-.368 6.738-1.062 11.25-1.542s13.604-1.581 20.204-2.446c6.6-.865 16.275-1.999 21.5-2.518 5.225-.52 11.3-1.393 13.5-1.941 2.2-.547 6.475-1.009 9.5-1.025 3.025-.016 7.075-.464 9-.995 3.376-.932 17.607-2.72 29-3.643 3.025-.245 6.513-.665 7.75-.932l2.25-.486V28H347v108.031m323-18.534V207h4.757c2.616 0 6.328-.46 8.25-1.021 1.921-.562 7.093-1.466 11.493-2.008 7.294-.9 13.059-1.836 29.812-4.843 3.196-.574 7.246-1.471 9-1.993 1.753-.523 5.663-1.661 8.688-2.53a645.938 645.938 0 0010.785-3.219c3.759-1.166 7.512-1.501 13-1.16 6.653.413 8.817 1.063 15.715 4.725 15.159 8.046 26.897 16.733 47.938 35.477 17.878 15.926 30.797 30.599 34.843 39.572 2.899 6.431 5.008 14.712 4.382 17.206-.875 3.487-4.463 7.759-7.544 8.985-4.432 1.763-17.078 3.888-28.619 4.809-10.561.843-17.842 2.059-33 5.511-3.85.876-9.025 1.957-11.5 2.402-6.003 1.079-13.646 3.055-18.27 4.725-2.074.749-4.667 1.362-5.764 1.362-1.096 0-2.775.394-3.73.876-.955.481-4.436 1.654-7.736 2.606s-7.125 2.191-8.5 2.754c-1.375.562-3.85 1.371-5.5 1.797-2.934.757-11.491 3.788-22.5 7.97-18.126 6.884-22.418 8.066-25.161 6.931-5.904-2.446-4.681-5.863 9.161-25.593 3.575-5.095 8.975-12.94 12-17.433 3.025-4.493 9.367-13.398 14.094-19.789 11.91-16.103 13.9-19.306 14.574-23.459.721-4.445-1.207-7.73-6.443-10.976-6.173-3.826-13.99-5.181-22.135-3.836-3.836.634-9.589 1.155-12.783 1.158-3.194.003-7.607.51-9.807 1.128-2.2.617-7.375 1.402-11.5 1.744l-7.5.622-.259 51.935c-.204 40.886.009 52.106 1 52.735 1.642 1.043 314.87 1.046 316.512.004.997-.633 1.202-33.144 1-159.235L988.5 28.5l-159.25-.253L670 27.994v89.503m-18 126.549c-3.575.403-11.45 1.255-17.5 1.894-6.05.639-12.575 1.586-14.5 2.105-1.925.519-5.75.946-8.5.95-2.75.003-8.527.68-12.838 1.505-4.311.825-9.849 1.5-12.307 1.5s-6.356.45-8.662.999c-4.004.954-12.433 1.993-32.193 3.969-4.95.495-11.025 1.368-13.5 1.941-2.475.573-6.75 1.064-9.5 1.091-2.75.027-7.025.521-9.5 1.098-2.475.577-8.775 1.45-14 1.939-5.225.49-15.125 1.609-22 2.487-6.875.878-15.678 1.974-19.562 2.437-3.884.463-8.834 1.333-11 1.935-2.166.601-5.821 1.095-8.123 1.098-2.302.003-5.402.469-6.889 1.034-1.488.566-6.355 1.459-10.816 1.986-4.46.527-12.61 1.668-18.11 2.537-5.5.868-13.244 1.962-17.208 2.429-3.964.468-7.679 1.141-8.254 1.496-.575.356-4.081 1.038-7.792 1.517-3.71.479-10.24 1.442-14.51 2.14l-7.764 1.269.264 30.549.264 30.549h102.097c76.006 0 102.455-.297 103.5-1.161.772-.638 3.095-1.476 5.164-1.863 2.069-.386 4.008-1.102 4.309-1.589.301-.488 1.466-.887 2.588-.887s3.458-.607 5.191-1.348c11.445-4.897 19.538-5.803 28.242-3.163 2.7.819 5.906 1.494 7.125 1.5 2.27.011 5.627 1.306 15.284 5.897 5.299 2.518 6.159 2.614 23.5 2.614h18l.259-51.75.259-51.75-2.259.157c-1.242.087-5.184.487-8.759.889m-323.5 44.083c-2.2.495-6.925 1.321-10.5 1.836-3.575.515-8.3 1.406-10.5 1.979-2.224.58-13.545 1.01-25.5.97l-21.5-.073-2.103 5.83a1624.843 1624.843 0 00-2.805 7.829c-3.342 9.508-7.724 19.651-12.239 28.329-2.955 5.681-5.117 10.743-4.804 11.25.627 1.015 97.251 1.319 99.869.314 1.393-.534 1.582-4.12 1.582-30V287l-3.75.115c-2.062.063-5.55.52-7.75 1.014M22.462 355.25c-.262.688-.36 71.675-.219 157.75l.257 156.5h317l.273-18.427c.151-10.134-.102-18.802-.562-19.262-.459-.459-3.732-.372-7.273.194-3.541.565-10.038 1.445-14.438 1.955-4.4.509-9.572 1.402-11.493 1.983-1.922.581-5.747 1.06-8.5 1.063-2.754.003-6.582.44-8.507.971-3.081.851-7.428 1.511-23.5 3.567-6.153.788-21.268 3.418-28.5 4.96-3.575.763-7.625 1.61-9 1.883-1.375.274-5.2 1.228-8.5 2.121-16.085 4.354-21.358 5.25-25.686 4.363-2.373-.485-6.339-1.294-8.814-1.797-6.98-1.418-20.052-5.017-26-7.159-7.529-2.71-20.794-9.544-26.624-13.715-7.833-5.605-15.376-15.629-15.376-20.436 0-5.361 5.169-8.764 13.313-8.764 2.937 0 10.03-.465 15.763-1.034 5.733-.569 17.624-1.435 26.424-1.925s21.175-1.387 27.5-1.992c13.224-1.267 29.293-2.493 53.5-4.083 31.211-2.051 41.961-2.943 47-3.898 2.75-.522 7.565-.976 10.701-1.008 3.135-.033 7.86-.484 10.5-1.002 2.639-.517 7.837-1.228 11.549-1.579l6.75-.638V424.484l-10.273-6.16c-5.65-3.388-11.903-7.697-13.895-9.576-6.24-5.885-9.827-15.375-6.582-17.416 4.287-2.697 11.977-4.269 21.025-4.299l9.775-.033-.275-16.25-.275-16.25-52.455-.259-52.455-.259-2.259 2.759c-1.243 1.517-2.275 3.045-2.295 3.395-.11 1.947-8.871 13.43-13.251 17.367-15.217 13.682-30.46 10.536-39.722-8.197-1.685-3.407-3.063-7.244-3.063-8.527 0-1.284-.701-3.334-1.557-4.556L170.887 354H96.912c-58.26 0-74.076.266-74.45 1.25m324.979.044c-.273.712-.372 8.024-.219 16.25l.278 14.956 2.5-.205c15.065-1.235 27.348-2.686 45.5-5.372 4.4-.652 10.925-1.521 14.5-1.933 3.575-.412 7.175-1.032 8-1.379.825-.347 4.425-1.061 8-1.588 7.313-1.077 16.899-2.964 28-5.513 4.125-.948 9.525-2.104 12-2.57 8.807-1.657 15.529-3.195 17.5-4.003 1.1-.451 4.25-1.322 7-1.935 6.161-1.374 9.624-2.247 22.25-5.607.688-.183 1.25-.796 1.25-1.364 0-.7-26.659-1.031-83.031-1.031-67.007 0-83.128.25-83.528 1.294M642 354.763c0 .845 19.333 15.237 20.468 15.237.339 0 .485-3.488.324-7.75l-.292-7.75-10.25-.285c-5.638-.157-10.25.09-10.25.548m28.667-.096c-.367.366-.663 5.654-.657 11.75l.009 11.083 3.579 4.5c4.652 5.851 7.402 11.988 7.402 16.519 0 3.034-.903 4.576-5.5 9.396l-5.5 5.766v142.52l4.25-.503c2.337-.276 8.75-.969 14.25-1.538 5.5-.569 12.025-1.502 14.5-2.073 2.475-.571 6.975-1.06 10-1.087 3.025-.027 7.525-.524 10-1.105 2.475-.58 9-1.455 14.5-1.944 5.5-.489 15.625-1.553 22.5-2.365 6.875-.812 15.2-1.741 18.5-2.063l16.826-1.648c13.066-1.282 18.473-.455 37.174 5.681 18.725 6.145 25.822 9.292 39 17.296 24.538 14.904 30.723 25.536 18.6 31.971-3.786 2.009-10.806 3.918-17.1 4.649-3.025.351-7.75 1.066-10.5 1.588-2.864.543-44.35 1.054-97.096 1.194-76.701.205-92.376.477-93.765 1.63-1.502 1.247-1.641 4.471-1.403 32.5l.264 31.116 158.439.253c126.091.202 158.602-.003 159.235-1 .918-1.446 1.134-310.786.219-313.171-.55-1.433-15.474-1.582-158.833-1.582-87.025 0-158.527.3-158.893.667M556 386.064c-2.475.395-8.325 1.461-13 2.368-4.675.907-10.525 2.018-13 2.469a193.665 193.665 0 00-9 1.914c-2.475.602-8.1 1.833-12.5 2.736-4.4.903-9.575 2.005-11.5 2.449-1.925.444-7.1 1.546-11.5 2.449-4.4.903-10.025 2.134-12.5 2.736a173.476 173.476 0 01-9 1.883c-2.475.434-7.425 1.501-11 2.372-3.575.87-8.869 2.005-11.764 2.521-2.896.516-5.819 1.281-6.496 1.7-.677.418-3.258 1.094-5.736 1.501-2.477.407-7.429 1.474-11.004 2.37-6.074 1.523-14.715 3.528-23.077 5.355-1.967.43-4.075 1.089-4.683 1.465-.609.376-3.049 1.099-5.423 1.606-2.374.508-7.692 1.892-11.817 3.077-7.428 2.134-17.567 2.312-23.756.419l-2.256-.69.256 78.853.256 78.854 8-.318c4.4-.175 11.6-.948 16-1.717 4.4-.77 10.925-1.418 14.5-1.442 3.575-.024 8.458-.494 10.85-1.046 2.393-.552 10.043-1.434 17-1.96 6.958-.526 19.4-1.662 27.65-2.525 8.25-.862 20.023-1.944 26.163-2.403 6.14-.459 11.671-1.148 12.29-1.531 2.194-1.356-.205-15.783-4.743-28.529-2.588-7.271-9.087-19.15-13.128-24-2.063-2.475-5.737-7.419-8.166-10.988-3.721-5.466-4.416-7.25-4.416-11.332 0-4.208.429-5.227 3.266-7.762 3.158-2.822 7.54-3.85 8.663-2.033.3.486 1.79 1.11 3.309 1.385 2.704.491 7.779 2.171 11.762 3.895 2.329 1.008 7.63 2.659 12.225 3.807 2.429.607 3.672.402 5.038-.833 5.979-5.403 37.596-44.378 53.247-65.639 23.016-31.264 25.448-35.981 21.185-41.079-2.113-2.526-6.192-3.314-12.195-2.357m101 33.074c-2.475 1.12-5.694 2.673-7.154 3.45-1.46.776-3.116 1.412-3.681 1.412-1.003 0-11.681 4.984-15.685 7.321-9.668 5.642-13.241 7.863-21.885 13.603-10.122 6.72-12.466 8.368-19.231 13.517a591.84 591.84 0 01-8.864 6.568c-2.75 1.995-10.175 7.477-16.5 12.182a5887.436 5887.436 0 01-27.5 20.275c-8.8 6.446-16.13 12.274-16.289 12.951-.16.677.793 2.323 2.116 3.657 8.545 8.616 13.64 22.807 13.661 38.051.007 4.744.302 10.077.657 11.852l.646 3.227 7.104-.503c16.841-1.193 33.497-2.799 38.539-3.714 2.988-.543 8.613-.998 12.5-1.011 3.886-.013 8.866-.467 11.066-1.008 2.2-.542 11.425-1.444 20.5-2.004 25.408-1.569 31.314-2.011 33.75-2.526l2.25-.476v-69.481c0-38.215-.337-69.459-.75-69.431-.413.027-2.775.967-5.25 2.088m-9 186.589c-43.652.95-108.232 3.683-109.798 4.646-.386.238-.413 6.663-.061 14.279.353 7.617.691 20.43.75 28.476.082 11.017.445 14.906 1.471 15.757.987.82 17.979 1.06 61.75.873l60.388-.258v-31.917c0-20.54-.356-31.954-1-32.022-.55-.058-6.625.017-13.5.166m-179.376 10.384c-2.131.5-10.006 1.348-17.5 1.883-7.493.536-19.924 1.654-27.624 2.485-7.7.831-18.95 1.952-25 2.49-6.05.539-12.572 1.441-14.493 2.005-1.922.564-5.747 1.029-8.5 1.032-2.754.003-6.695.474-8.759 1.047-2.063.573-7.238 1.358-11.5 1.744l-7.748.703v40l67.68.257c63.829.242 67.709.157 68.182-1.5.275-.966.812-13.344 1.192-27.507l.691-25.75-6.372.1c-3.505.056-8.117.51-10.249 1.011M22.667 677.667c-.367.366-.667 72.141-.667 159.5V996h318V837.107c0-143.967-.149-158.95-1.582-159.5-2.169-.832-314.918-.773-315.751.06m325 0c-.367.366-.667 72.141-.667 159.5V996h316.006l-.253-159.25-.253-159.25-59.942-.258c-33.898-.146-60.327.127-60.828.628-.488.488-.831 15.679-.763 33.758.138 37.005-1.089 64.226-4.932 109.372-1.648 19.363-7.567 44.326-15.056 63.5-10.835 27.743-33.681 52.463-48.511 52.491-4.66.008-5.393-.343-9.895-4.741-4.218-4.121-12.845-14.754-17.573-21.659-3.983-5.817-18.104-22.574-26.394-31.321-5.092-5.374-11.475-12.324-14.183-15.446-2.707-3.121-10.3-10.771-16.873-17C363.864 824.378 363 823.425 363 819.75c0-1.842.54-3.89 1.2-4.55 1.496-1.496 8.733-1.553 14.184-.112 10.49 2.773 15.271 4.125 17.116 4.839 3.987 1.543 9.064 3.266 12 4.073 2.776.763 7.117 2.226 12 4.044 2.962 1.103 10.205 3.412 17 5.421a922.8 922.8 0 0110.428 3.154c6.041 1.884 13.523 1.787 15.511-.201 1.976-1.976 9.561-17.741 9.561-19.872 0-.865.432-2.355.96-3.31 2.396-4.336 5.548-25.358 6.967-46.46.507-7.548 1.255-14.262 1.662-14.92 1.198-1.939 2.303-72.164 1.159-73.606-.777-.978-15.531-1.25-67.704-1.25-36.691 0-67.011.3-67.377.667m323.583-.005c-.993.401-1.25 33.224-1.25 159.424v158.92l159.25-.253 159.25-.253.253-158.439c.202-126.091-.003-158.602-1-159.235-1.34-.85-314.399-1.013-316.503-.164" fill="undefined" fill-rule="evenodd"/></svg>